<?xml version="1.0" standalone="no"?>
<!DOCTYPE svg PUBLIC "-//W3C//DTD SVG 20010904//EN"
 "http://www.w3.org/TR/2001/REC-SVG-20010904/DTD/svg10.dtd">
<svg version="1.0" xmlns="http://www.w3.org/2000/svg"
 width="260.000000pt" height="260.000000pt" viewBox="0 0 260.000000 260.000000"
 preserveAspectRatio="xMidYMid meet">
<metadata>
Created by potrace 1.11, written by Peter Selinger 2001-2013
</metadata>
<g transform="translate(0.000000,260.000000) scale(0.100000,-0.100000)"
fill="#000000" stroke="none">
<path d="M1071 2594 c-1 -6 2 -14 6 -18 4 -3 8 -15 10 -26 2 -14 -2 -18 -12
-14 -8 4 -12 10 -9 15 3 5 0 17 -6 26 -11 17 -11 17 -6 -1 4 -11 0 -27 -10
-37 -13 -14 -14 -22 -5 -32 8 -11 7 -18 -8 -31 -14 -13 -21 -14 -27 -5 -5 8
-3 10 6 4 9 -6 11 -4 5 5 -5 9 -4 11 3 6 8 -5 10 -2 6 9 -4 9 -7 15 -8 13 -1
-2 -10 -14 -21 -27 -11 -14 -14 -21 -8 -17 9 5 11 2 7 -8 -3 -9 -12 -12 -21
-9 -11 4 -14 2 -9 -5 4 -7 1 -12 -9 -12 -10 0 -13 5 -9 12 4 7 3 8 -5 4 -9 -6
-9 -11 0 -22 6 -7 16 -11 22 -7 6 3 7 1 3 -5 -5 -9 -13 -9 -27 -2 -10 6 -19 7
-19 2 0 -4 -6 -16 -13 -26 -13 -17 -14 -18 -20 -2 -4 9 -3 14 2 11 5 -3 13 0
17 6 4 8 3 9 -4 5 -7 -4 -12 -2 -12 3 0 6 -8 3 -18 -6 -16 -16 -16 -19 -2 -30
13 -10 13 -11 0 -10 -8 2 -21 6 -27 10 -9 6 -11 3 -7 -8 4 -9 3 -15 -2 -13 -5
2 -19 -7 -32 -19 -12 -13 -18 -23 -13 -23 4 0 7 -10 7 -22 -1 -13 2 -29 8 -36
7 -9 5 -12 -5 -10 -8 2 -13 -3 -11 -10 1 -8 -1 -11 -5 -9 -5 3 -19 -1 -33 -10
-14 -8 -18 -12 -9 -10 10 3 15 -2 15 -18 0 -13 -4 -21 -8 -19 -5 3 -6 9 -4 13
3 4 -1 8 -9 8 -11 0 -11 -4 2 -23 13 -21 13 -23 -5 -33 -11 -6 -22 -7 -26 -3
-4 3 -4 -1 0 -11 3 -9 11 -14 18 -10 6 3 7 2 3 -3 -5 -5 -14 -9 -20 -9 -7 -1
-11 -6 -10 -12 1 -6 -8 -14 -21 -17 -20 -5 -23 -11 -20 -38 3 -23 1 -29 -6
-18 -8 12 -10 12 -15 -2 -4 -10 -3 -22 1 -29 5 -8 3 -9 -6 -4 -10 6 -12 4 -7
-9 5 -11 3 -15 -5 -10 -8 5 -9 2 -5 -9 3 -10 2 -17 -3 -17 -6 0 -10 5 -10 12
0 6 -3 8 -7 5 -3 -4 4 -19 18 -34 13 -14 18 -23 12 -19 -7 4 -13 2 -13 -4 0
-6 -5 -8 -11 -4 -8 5 -8 9 1 14 8 5 7 9 -5 13 -9 4 -14 3 -10 -2 3 -5 -1 -12
-7 -14 -10 -4 -10 -6 -1 -6 7 -1 10 -8 6 -18 -4 -10 -2 -14 4 -10 7 5 9 -1 6
-14 -4 -12 -15 -24 -25 -27 -14 -3 -16 -7 -8 -12 7 -4 9 -13 6 -19 -4 -6 -12
-8 -18 -5 -7 4 -8 2 -4 -5 4 -6 4 -18 -1 -24 -4 -7 0 -4 10 6 9 11 17 14 17 9
0 -6 -5 -14 -11 -17 -6 -4 -8 -13 -5 -20 3 -9 -2 -12 -15 -10 -12 2 -23 -4
-30 -17 -9 -16 -8 -19 2 -13 8 5 10 4 5 -4 -6 -8 -11 -9 -20 -2 -10 8 -18 5
-31 -9 -12 -13 -26 -18 -39 -14 -17 4 -18 3 -6 -5 13 -9 13 -12 1 -23 -10 -10
-12 -10 -7 0 4 6 3 12 -3 12 -5 0 -12 -6 -14 -12 -4 -10 -6 -10 -6 1 -1 8 -8
4 -21 -10 -10 -13 -19 -18 -20 -11 0 6 5 12 10 12 6 0 10 8 9 18 0 10 -3 12
-6 4 -2 -6 -10 -9 -15 -6 -7 5 -8 2 -3 -6 6 -9 4 -12 -7 -8 -8 4 -15 0 -15 -8
0 -7 5 -10 10 -7 6 4 7 1 2 -6 -4 -7 -17 -11 -30 -9 -13 3 -22 0 -22 -8 0 -7
6 -10 14 -7 7 3 13 1 13 -5 0 -5 -15 -9 -33 -8 -20 1 -34 -4 -34 -10 0 -7 7
-10 16 -7 10 4 9 0 -4 -10 -15 -11 -22 -12 -27 -4 -6 9 -8 8 -8 -1 0 -7 -4
-11 -9 -7 -5 3 -12 1 -16 -5 -4 -6 -12 -7 -18 -3 -7 4 -7 0 1 -10 11 -12 11
-20 2 -34 -8 -13 -10 -13 -7 -2 3 9 -1 16 -8 16 -7 0 -10 -8 -7 -19 2 -10 -1
-18 -7 -18 -7 0 -9 6 -5 13 4 7 3 9 -2 4 -5 -5 -9 -12 -9 -15 0 -4 -4 -13 -9
-20 -6 -11 -11 -11 -24 0 -15 12 -16 11 -3 -4 9 -12 10 -18 2 -18 -6 0 -11 -5
-11 -12 0 -6 13 0 28 15 20 19 29 23 29 13 0 -8 -5 -14 -11 -13 -6 1 -10 -4
-9 -10 2 -7 0 -12 -5 -11 -4 0 -15 -2 -24 -5 -10 -4 -25 -9 -34 -12 -13 -4
-14 -8 -5 -19 9 -11 9 -16 0 -22 -7 -4 -9 -3 -5 4 3 6 1 14 -5 17 -5 4 -8 14
-5 22 4 8 2 11 -5 7 -6 -3 -9 -17 -6 -31 2 -13 2 -22 -1 -19 -2 3 -10 0 -16
-7 -14 -14 -18 -299 -4 -291 4 3 8 0 8 -5 0 -6 -4 -11 -10 -11 -5 0 -10 -5
-10 -10 0 -6 10 -9 22 -6 18 3 23 -1 24 -20 1 -13 -2 -24 -7 -24 -5 0 -9 -5
-9 -11 0 -5 4 -8 9 -4 5 3 13 0 16 -5 5 -8 14 -5 28 7 l20 18 -18 -30 c-10
-16 -12 -24 -5 -18 19 17 31 16 24 -2 -6 -14 7 -19 44 -18 9 1 8 -5 -5 -20
-10 -12 -12 -17 -4 -12 10 6 13 4 9 -7 -4 -9 0 -15 8 -15 9 0 13 6 9 15 -4 12
-2 12 8 4 8 -7 18 -8 23 -4 5 4 0 -4 -11 -18 -11 -14 -13 -19 -5 -12 19 16 30
15 30 -4 0 -9 -5 -12 -13 -8 -7 4 -9 3 -4 -2 5 -5 13 -10 18 -10 5 -1 11 -3
14 -4 6 -3 22 -7 35 -9 6 0 10 -5 10 -10 0 -5 -10 -7 -23 -4 -12 3 -19 3 -16
0 3 -4 16 -8 30 -11 13 -2 23 -9 21 -15 -1 -6 3 -11 9 -11 6 0 9 7 5 15 -3 8
-1 15 4 15 6 0 10 -7 10 -16 0 -8 4 -12 10 -9 6 4 7 -1 3 -11 -5 -14 -3 -15
17 -4 18 10 21 9 15 -1 -6 -9 -3 -11 8 -6 11 4 14 2 11 -7 -3 -7 2 -16 10 -19
10 -4 13 -1 9 9 -4 10 0 12 11 8 9 -3 13 -11 9 -17 -4 -7 0 -8 11 -4 13 5 17
3 13 -7 -4 -10 -1 -13 8 -9 8 3 12 9 9 14 -3 5 0 9 6 9 6 0 10 -8 8 -17 -2
-11 2 -17 10 -15 8 1 11 -2 7 -8 -5 -8 -11 -8 -19 -1 -9 8 -13 7 -13 -3 0 -15
48 -17 60 -1 5 6 7 3 3 -7 -6 -19 19 -37 45 -33 12 2 15 -3 12 -19 -4 -17 -3
-18 6 -6 9 13 11 12 11 -4 0 -11 3 -16 7 -13 3 4 17 0 30 -8 16 -11 23 -12 23
-4 0 7 3 10 6 7 3 -4 0 -17 -7 -30 -12 -23 -12 -23 10 -4 11 11 24 16 28 13 3
-4 1 -7 -5 -7 -7 0 -12 -5 -12 -11 0 -5 5 -7 10 -4 6 3 10 0 10 -8 0 -8 10
-19 23 -25 18 -10 19 -11 3 -9 -10 1 -20 -4 -22 -11 -1 -7 0 -8 2 -3 6 12 34
3 34 -11 0 -5 -4 -7 -9 -3 -5 3 -13 0 -17 -6 -4 -8 -3 -9 4 -5 6 3 16 -2 21
-13 14 -26 14 -34 -1 -25 -7 4 -5 -1 4 -12 9 -10 18 -30 20 -44 5 -34 18 -52
33 -46 22 8 26 -6 8 -28 -10 -12 -14 -18 -9 -14 5 4 15 3 22 -2 6 -6 17 -9 24
-8 7 2 14 -5 15 -15 3 -14 0 -16 -10 -7 -10 8 -15 8 -21 -1 -4 -8 -3 -9 4 -5
7 4 12 2 12 -4 0 -7 7 -10 15 -6 8 3 26 0 40 -6 28 -13 35 -41 8 -32 -15 5
-15 4 -3 -4 8 -6 18 -8 22 -6 4 3 12 -6 17 -19 6 -14 15 -28 21 -32 5 -3 8
-10 5 -15 -6 -10 22 -7 30 3 3 4 2 5 -2 2 -10 -8 -33 16 -26 28 4 6 1 7 -7 2
-9 -6 -11 -4 -6 4 9 14 21 6 21 -12 0 -7 5 -12 12 -12 7 0 18 -6 25 -14 10
-10 10 -12 1 -7 -9 5 -13 0 -13 -13 0 -12 5 -21 11 -21 5 0 8 4 5 9 -3 5 1 11
9 14 9 4 12 1 9 -7 -3 -8 0 -17 7 -22 7 -4 10 -3 6 2 -3 5 3 10 13 10 10 0 18
-5 17 -11 -1 -5 3 -9 10 -8 7 2 10 -4 7 -15 -5 -14 -3 -14 10 2 13 16 16 17
16 4 0 -26 -27 -29 -44 -5 -15 21 -15 21 -4 -5 6 -16 14 -28 17 -29 40 -7 169
-4 180 5 11 8 13 8 7 -2 -6 -9 -1 -12 16 -10 12 2 29 7 37 12 10 6 12 5 7 -2
-5 -8 18 -11 82 -9 58 1 88 6 85 13 -2 5 5 21 17 34 11 13 20 19 20 15 0 -5
-8 -17 -17 -28 -11 -13 -12 -17 -4 -12 11 6 13 4 8 -9 -4 -11 -3 -15 4 -11 6
4 8 13 5 21 -6 15 27 37 39 26 5 -4 5 -1 1 6 -4 7 -13 9 -19 5 -7 -4 -6 0 2
10 7 9 19 17 25 17 7 0 6 -4 -2 -9 -11 -7 -11 -9 2 -14 9 -4 15 -3 15 1 -5 28
2 44 17 38 12 -5 15 -2 10 10 -5 14 -4 15 9 4 8 -7 15 -9 16 -4 0 5 2 19 5 32
3 16 0 21 -8 16 -6 -4 -8 -3 -5 4 4 5 18 9 32 7 19 -2 27 3 31 21 3 13 13 29
22 36 12 10 14 10 8 1 -4 -8 -2 -13 5 -13 7 0 9 8 6 21 -4 15 -2 18 7 10 13
-11 26 -5 26 11 0 5 -5 6 -12 2 -7 -4 -8 -3 -4 5 4 6 12 9 17 5 6 -3 9 1 7 9
-2 9 2 16 7 17 30 5 43 21 39 47 -3 22 -2 24 6 13 9 -13 11 -13 20 0 5 8 10
20 10 25 0 6 -4 4 -9 -4 -6 -9 -11 -10 -15 -2 -4 6 -2 11 4 11 7 0 10 7 7 15
-7 18 9 30 19 14 4 -8 3 -9 -4 -5 -18 11 -14 0 6 -15 9 -7 14 -9 10 -5 -4 5
-2 16 5 24 10 13 9 14 -2 7 -11 -6 -13 -4 -8 8 3 9 1 19 -5 23 -7 5 -8 2 -3
-6 5 -9 4 -11 -3 -6 -20 12 -13 28 9 21 18 -6 19 -4 10 13 -8 15 -7 23 4 32 8
7 13 15 12 18 -1 4 2 8 7 9 5 1 12 6 16 13 4 6 16 13 26 14 10 2 18 10 16 17
-3 11 -1 11 9 2 14 -14 42 -6 32 10 -3 5 -1 7 5 3 6 -3 13 -2 17 4 4 6 10 8
15 5 5 -3 11 -1 15 4 3 7 15 7 30 1 26 -10 44 3 24 16 -8 5 -9 3 -4 -6 5 -8 4
-11 -3 -6 -6 4 -8 14 -5 22 3 9 9 12 12 6 10 -15 48 -21 48 -7 0 8 -7 11 -16
7 -17 -6 -16 -4 13 18 16 12 18 12 12 1 -6 -9 -5 -12 5 -9 8 3 13 12 11 19 -3
12 -1 12 10 1 11 -11 10 -16 -7 -29 -11 -8 -13 -13 -5 -11 8 2 21 18 30 34 9
16 25 31 34 32 13 3 16 0 10 -10 -6 -10 -5 -10 9 1 18 15 23 26 7 16 -6 -3 -7
1 -4 10 5 13 9 13 22 3 13 -11 15 -10 10 3 -10 25 5 39 22 21 13 -14 12 -15
-5 -8 -16 6 -17 5 -8 -5 9 -9 16 -9 26 -1 8 7 18 8 22 4 5 -4 4 0 -1 8 -14 25
-13 37 5 36 10 -1 15 5 13 17 -2 9 2 17 8 17 6 0 8 -4 5 -10 -3 -6 1 -10 10
-10 9 0 13 5 10 10 -3 6 -2 10 4 10 5 0 12 -6 15 -12 4 -7 4 -3 2 10 -2 12 0
19 5 16 6 -3 17 0 26 8 9 7 24 14 35 14 37 3 40 4 35 18 -3 8 -3 17 1 20 9 10
11 37 2 31 -5 -3 -12 0 -16 6 -4 7 -3 9 3 6 10 -6 42 21 35 30 -1 2 2 11 7 21
10 15 10 14 8 -5 -2 -11 -8 -27 -15 -35 -9 -12 -9 -15 3 -15 8 0 11 5 8 10 -4
6 0 8 10 4 9 -3 19 -1 23 5 4 7 3 8 -4 4 -7 -4 -12 -1 -12 9 0 10 5 13 13 9 7
-5 6 0 -3 11 -8 10 -10 16 -4 12 8 -5 11 18 11 79 -1 73 -3 84 -16 79 -10 -3
-9 0 4 10 17 13 18 18 7 36 -8 12 -10 19 -5 16 5 -3 10 28 10 69 1 51 -2 74
-10 74 -8 0 -9 3 -1 8 8 5 7 16 -3 37 -11 24 -13 25 -9 6 4 -17 2 -21 -6 -13
-8 8 -15 7 -25 -6 -8 -10 -7 -3 3 18 17 34 16 35 -1 20 -15 -12 -17 -12 -10
-1 6 11 4 13 -10 7 -18 -6 -18 -6 -2 12 13 14 14 21 5 30 -8 8 -8 16 3 29 12
16 12 17 -2 6 -9 -7 -19 -10 -23 -6 -4 4 -4 -1 -1 -12 6 -16 5 -17 -4 -5 -7
11 -5 20 7 35 9 11 13 17 8 13 -5 -4 -15 -3 -22 3 -8 7 -14 6 -20 -2 -5 -8 -3
-9 6 -4 9 5 11 4 6 -4 -6 -9 -11 -9 -22 0 -15 12 -19 24 -6 15 4 -2 9 5 9 17
2 16 0 18 -6 8 -6 -9 -14 -10 -22 -5 -8 5 -22 9 -31 10 -36 3 -39 4 -33 14 8
13 -18 13 -31 0 -6 -6 -10 -2 -11 12 -1 14 1 18 5 11 4 -7 13 -9 21 -4 9 6 7
10 -8 14 -13 3 -25 -1 -32 -11 -8 -14 -9 -13 -4 5 5 17 3 22 -8 17 -8 -3 -18
0 -23 7 -4 7 -3 10 4 5 6 -3 13 -2 16 3 7 11 -13 9 -32 -3 -7 -4 -16 -5 -19
-2 -4 3 0 6 8 6 11 0 11 2 -1 10 -22 14 -43 12 -34 -2 6 -10 4 -10 -7 -2 -8 6
-22 10 -31 9 -10 -2 -18 1 -18 7 0 6 6 8 14 5 10 -4 12 0 9 14 -3 10 -8 19
-12 20 -3 0 -14 2 -24 4 -9 2 -15 0 -12 -5 3 -4 -2 -13 -9 -19 -12 -10 -14 -8
-9 11 4 18 3 20 -6 8 -9 -13 -11 -12 -11 3 0 10 -4 16 -9 12 -5 -3 -12 -1 -16
5 -4 6 -10 8 -15 5 -5 -3 -7 6 -4 20 2 14 0 25 -6 25 -5 0 -10 -5 -10 -12 0
-6 -3 -8 -7 -4 -5 4 1 14 12 23 19 15 19 15 -3 8 -22 -6 -23 -5 -11 17 12 22
11 23 -8 5 -16 -14 -20 -14 -20 -2 0 8 4 12 8 10 4 -3 9 2 12 10 4 10 1 12
-10 8 -12 -5 -14 -1 -9 15 6 17 3 20 -16 15 -23 -6 -23 -6 2 16 24 22 24 22 2
11 -13 -7 -26 -9 -30 -6 -3 3 0 6 7 6 7 0 10 4 6 9 -3 5 0 13 6 17 8 5 9 3 4
-6 -6 -9 -4 -11 5 -5 10 6 9 11 -5 21 -10 7 -21 12 -24 10 -3 -2 -6 6 -6 19 0
18 3 21 13 13 7 -6 15 -8 19 -4 3 3 1 6 -6 6 -7 0 -9 5 -6 10 4 6 3 10 -2 9
-21 -4 -33 2 -33 17 0 9 -5 12 -12 8 -10 -6 -10 -5 -1 8 11 12 10 18 -5 30 -9
8 -24 18 -33 21 -11 4 -15 14 -13 34 2 15 1 22 -2 16 -10 -23 -21 -14 -16 12
3 18 -2 31 -14 41 -11 9 -13 12 -6 9 11 -6 12 -3 3 14 -7 11 -14 21 -17 21 -3
0 -2 -5 2 -12 5 -7 3 -8 -5 -4 -7 5 -10 14 -7 22 3 8 2 14 -2 14 -5 0 -16 16
-25 36 -10 19 -13 33 -8 30 5 -4 13 -1 17 5 4 8 3 9 -4 5 -7 -4 -13 -2 -13 3
-1 6 -2 15 -3 20 -1 12 -15 26 -27 27 -5 1 -14 2 -20 3 -5 0 -8 5 -5 10 7 11
-27 9 -35 -2 -3 -5 -9 -1 -12 8 -4 9 -3 14 1 11 4 -2 9 5 9 17 2 16 0 18 -6 8
-10 -16 -61 -7 -61 10 0 6 -4 8 -9 4 -5 -3 -16 3 -23 13 -7 10 -22 24 -33 31
-14 9 -15 11 -3 7 12 -3 15 -1 11 9 -3 8 -9 12 -14 9 -11 -7 -12 9 -1 21 5 6
1 17 -10 28 -10 9 -18 12 -18 6 0 -5 -5 -7 -10 -4 -8 5 -7 11 1 21 6 8 9 17 5
21 -3 3 -6 1 -6 -6 0 -8 -6 -9 -17 -3 -23 10 -84 9 -102 -2 -9 -6 -12 -5 -8 1
9 15 -114 13 -132 -1 -11 -8 -13 -8 -8 1 10 16 -75 13 -88 -4 -7 -9 -14 -10
-25 -2 -13 9 -12 10 3 5 9 -3 17 -1 17 4 0 11 -49 8 -67 -3 -6 -4 -14 -1 -16
5 -3 7 -6 8 -6 2z m434 -24 c-5 -9 15 -28 30 -28 5 0 11 -5 13 -11 5 -14 -15
-14 -23 -1 -4 6 -11 7 -17 4 -6 -4 -8 -2 -4 4 3 6 2 13 -4 17 -5 3 -10 1 -10
-4 0 -6 -5 -11 -11 -11 -8 0 -8 4 1 15 6 8 9 19 5 24 -3 7 0 8 9 5 9 -3 14
-10 11 -14z m-395 -5 c0 -8 -2 -15 -4 -15 -2 0 -6 7 -10 15 -3 8 -1 15 4 15 6
0 10 -7 10 -15z m-43 -51 c-9 -9 -28 6 -21 18 4 6 10 6 17 -1 6 -6 8 -13 4
-17z m158 -143 c-3 -6 2 -14 12 -20 18 -10 51 2 65 23 6 8 8 8 8 -1 0 -7 10
-10 25 -7 14 2 25 0 25 -6 0 -6 -5 -8 -12 -4 -7 5 -8 3 -3 -6 6 -10 10 -10 19
2 10 14 13 14 25 0 13 -13 15 -13 22 4 6 14 8 15 9 4 2 -8 2 -18 1 -22 0 -4 6
-5 15 -1 13 5 13 7 2 14 -9 6 -6 8 9 7 14 -2 19 -7 15 -18 -5 -13 -4 -13 13 0
17 14 18 13 12 -2 -3 -10 -1 -20 5 -24 7 -4 8 -3 4 4 -9 14 4 15 24 2 12 -8
12 -10 1 -10 -8 0 -11 -3 -7 -7 4 -5 14 1 23 12 15 20 15 20 11 0 -2 -12 2
-19 10 -17 8 1 11 -2 8 -7 -4 -5 2 -14 11 -20 10 -5 15 -12 12 -15 -3 -3 -16
4 -28 15 -12 12 -25 19 -28 16 -2 -3 7 -13 22 -23 16 -11 24 -23 20 -32 -4
-12 0 -11 16 4 l22 19 -13 -25 c-13 -24 -12 -24 5 -10 17 14 17 13 10 -9 -6
-19 -4 -23 7 -18 8 3 21 1 29 -5 11 -8 11 -9 -3 -5 -12 4 -16 0 -15 -13 1 -11
7 -22 14 -24 8 -3 10 1 6 12 -3 9 -2 14 2 9 5 -4 9 -17 10 -30 1 -17 8 -22 27
-21 20 1 24 -3 23 -21 -2 -13 3 -22 11 -22 9 0 11 4 4 12 -11 13 -3 25 14 25
6 0 4 -5 -4 -10 -12 -8 -12 -10 -1 -10 9 0 11 -7 8 -21 -4 -16 -3 -18 9 -8 8
6 14 10 15 8 6 -31 6 -38 -1 -34 -5 3 -12 0 -16 -6 -4 -8 -3 -9 4 -5 7 4 12 2
12 -4 0 -6 5 -8 10 -5 14 9 9 -67 -5 -78 -6 -5 -4 -7 5 -4 8 2 15 9 15 14 0 6
4 15 9 20 5 5 6 3 2 -4 -4 -8 -2 -13 6 -14 10 0 10 -2 1 -6 -7 -2 -13 -9 -13
-14 0 -6 5 -7 12 -3 7 5 8 3 4 -5 -5 -7 -15 -10 -25 -7 -14 5 -14 4 1 -7 14
-11 15 -16 5 -27 -10 -12 -9 -12 5 -1 10 7 15 17 12 22 -3 5 0 9 5 9 14 0 14
-6 1 -30 -7 -13 -7 -21 0 -25 6 -4 7 -12 4 -18 -4 -7 -3 -8 1 -4 14 12 15 38
2 30 -7 -3 -9 -3 -5 1 8 9 18 9 19 -1 1 -5 5 -16 11 -27 7 -13 7 -16 -1 -12
-6 4 -11 2 -11 -3 0 -6 5 -11 10 -11 6 0 10 -5 10 -11 0 -5 -4 -7 -10 -4 -6 3
-7 -1 -4 -10 5 -12 9 -13 20 -4 12 10 13 9 8 -5 -3 -9 -11 -16 -16 -16 -6 0 0
-9 13 -19 20 -16 22 -22 11 -33 -11 -11 -12 -10 -7 3 8 20 -10 35 -21 18 -4
-8 -3 -9 4 -5 13 8 16 -6 5 -18 -13 -12 -10 -53 3 -53 7 0 11 4 8 9 -3 4 -1 8
5 8 17 0 7 -48 -14 -65 -16 -12 -17 -14 -2 -9 13 5 16 2 11 -10 -3 -9 -1 -16
5 -16 6 0 11 -6 11 -14 0 -8 5 -18 12 -22 7 -4 8 -3 4 4 -5 8 -1 10 10 5 11
-4 13 -8 6 -11 -7 -2 -12 -11 -12 -20 0 -12 3 -13 12 -4 7 7 17 12 22 12 6 0
0 -7 -12 -16 -12 -8 -22 -20 -22 -26 0 -7 5 -6 14 1 11 9 16 9 22 0 4 -8 3 -9
-4 -5 -17 10 -15 -3 3 -21 20 -19 1 -50 -20 -33 -10 8 -15 8 -21 -1 -4 -8 -3
-9 5 -5 6 4 14 0 17 -9 6 -13 8 -14 15 -3 7 10 9 10 9 -2 0 -13 1 -13 11 0 9
13 10 13 6 0 -2 -8 -10 -14 -16 -12 -7 1 -11 -6 -9 -15 2 -13 -3 -17 -17 -15
-12 2 -16 0 -9 -5 6 -4 10 -16 8 -25 -1 -10 2 -20 6 -23 5 -3 7 3 5 14 -4 22
20 37 31 19 4 -7 3 -8 -4 -4 -11 7 -17 -6 -13 -27 1 -5 -8 -11 -19 -14 -11 -3
-20 -10 -20 -15 0 -5 5 -6 10 -3 6 3 10 -1 10 -9 0 -8 -8 -20 -17 -25 -15 -9
-16 -10 -2 -11 9 0 16 -6 17 -12 0 -7 3 -22 5 -33 3 -13 -3 -24 -17 -32 -11
-7 -15 -12 -8 -13 7 0 10 -5 6 -12 -4 -6 -3 -8 3 -5 17 11 23 -19 8 -41 -8
-10 -11 -22 -8 -26 3 -3 1 -6 -5 -6 -15 0 -15 13 0 28 7 7 8 12 2 12 -5 0 -2
5 6 11 13 9 13 10 0 6 -8 -2 -15 -8 -15 -13 -1 -5 -7 -20 -14 -33 -7 -13 -8
-21 -3 -17 6 3 13 2 17 -4 3 -5 -3 -10 -15 -10 -18 0 -19 -3 -9 -23 10 -19 10
-20 -2 -10 -12 9 -14 5 -14 -25 0 -30 -4 -37 -18 -35 -12 0 -16 -4 -13 -12 14
-36 -93 -52 -142 -21 -7 4 -12 4 -11 -1 4 -22 -3 -24 -21 -8 -11 10 -23 15
-27 12 -3 -4 -1 -7 6 -7 7 0 9 -5 5 -12 -5 -7 -3 -8 7 -3 11 7 12 6 2 -7 -7
-8 -9 -19 -5 -23 4 -5 1 -5 -6 -1 -7 4 -10 11 -7 16 3 4 -2 13 -9 19 -11 9
-16 9 -22 0 -4 -8 -3 -9 4 -5 7 4 12 3 12 -2 0 -6 -7 -13 -16 -16 -8 -3 -13
-2 -10 3 3 5 -5 16 -19 25 -14 9 -25 13 -24 9 3 -21 -2 -24 -18 -12 -14 12
-16 12 -8 0 6 -11 4 -13 -9 -8 -11 4 -15 3 -11 -4 4 -6 14 -8 22 -5 8 3 12 2
8 -3 -3 -5 -2 -11 2 -14 5 -2 2 -2 -6 0 -7 2 -21 -2 -30 -9 -14 -12 -14 -11
-2 5 12 15 11 17 -14 17 -20 0 -26 4 -21 16 3 8 2 12 -4 9 -6 -3 -10 -16 -10
-28 -1 -20 -1 -21 -11 -4 -8 13 -7 23 3 35 12 15 11 16 -5 3 -10 -8 -16 -20
-13 -26 3 -9 -3 -11 -17 -7 -18 4 -20 3 -12 -10 6 -8 -1 -2 -14 12 l-24 28
-24 -26 c-13 -14 -23 -19 -23 -12 0 9 -7 7 -22 -6 l-23 -19 19 22 c10 12 23
21 28 20 6 -1 13 5 15 13 4 12 3 12 -5 1 -8 -11 -12 -10 -22 5 -9 15 -10 15
-6 2 4 -15 -14 -31 -39 -33 -5 0 -16 -4 -24 -9 -10 -7 -12 -6 -6 4 6 10 4 12
-9 7 -10 -4 -15 -3 -11 3 3 6 1 10 -4 10 -6 0 -11 -5 -11 -11 0 -6 -6 -9 -14
-6 -7 3 -19 0 -26 -6 -8 -8 -11 -8 -7 -1 4 6 -5 16 -18 22 -14 7 -25 17 -25
24 0 8 -5 6 -11 -5 -8 -13 -14 -15 -29 -7 -10 5 -26 7 -36 3 -13 -5 -15 -3 -9
7 5 9 4 11 -4 6 -18 -12 -2 -27 22 -21 12 2 16 2 9 -1 -6 -3 -10 -10 -6 -15 3
-5 -6 -4 -20 3 -14 6 -26 17 -26 25 0 7 -4 13 -10 13 -5 0 -7 -6 -4 -14 7 -18
-12 -30 -22 -15 -5 8 -3 9 7 4 11 -7 11 -5 -1 11 -8 10 -15 20 -16 22 -1 2 -4
-4 -8 -13 -3 -9 -2 -14 2 -11 4 2 8 -4 8 -15 0 -19 -1 -19 -14 -2 -11 15 -14
16 -22 3 -8 -12 -10 -12 -10 -1 0 7 -6 11 -15 7 -9 -3 -15 0 -15 10 0 8 4 13
9 9 5 -3 12 -1 15 4 7 10 -9 9 -36 -4 -10 -4 -15 -12 -11 -19 4 -7 1 -7 -9 1
-8 7 -18 9 -22 5 -4 -4 -6 0 -4 8 2 8 -2 14 -9 13 -11 -3 -40 22 -71 59 -10
13 -10 19 5 34 15 15 15 17 2 12 -9 -4 -23 -1 -30 5 -9 9 -9 7 1 -8 11 -16 12
-18 0 -8 -10 10 -17 10 -28 1 -8 -7 -5 4 7 27 21 38 21 39 1 16 -15 -17 -20
-19 -20 -8 0 9 -10 23 -22 31 -12 9 -16 16 -9 16 7 0 11 6 8 14 -4 11 -1 13
11 9 15 -6 15 -4 4 9 -7 9 -22 15 -33 13 -11 -2 -17 0 -14 5 3 5 14 7 25 5 14
-3 17 1 13 13 -4 9 -11 20 -17 24 -7 5 -4 8 6 8 20 0 37 -28 31 -50 -4 -13 -3
-13 6 -1 11 17 3 35 -29 69 -11 12 -16 22 -11 22 5 0 13 -5 17 -11 4 -7 9 -8
17 0 7 7 7 14 0 23 -6 7 -9 21 -8 31 2 11 -4 17 -18 18 -21 0 -21 1 -2 9 11 5
16 9 10 9 -5 1 -3 6 5 11 12 8 12 10 1 10 -9 0 -10 4 -4 13 13 16 12 47 -1 47
-6 0 -4 5 4 10 11 7 11 10 2 10 -7 0 -11 4 -7 9 3 6 -3 14 -12 20 -10 6 -13
11 -6 11 7 0 10 9 8 21 -3 15 0 19 10 15 8 -3 15 -1 15 4 0 9 -15 14 -33 11
-5 -1 -6 3 -2 9 3 6 11 7 17 4 6 -4 8 2 4 17 -6 21 -5 21 9 -3 9 -16 17 -28
19 -28 6 0 0 36 -9 49 -5 10 -4 12 3 7 7 -4 12 -3 12 3 0 5 -8 12 -17 15 -10
3 -6 4 9 2 26 -3 57 18 45 30 -10 10 -28 -7 -21 -19 4 -7 3 -8 -1 -4 -11 10
-16 39 -5 32 4 -3 11 2 14 11 3 8 2 13 -2 10 -5 -3 -9 1 -9 9 0 10 5 11 16 5
13 -7 16 -2 15 28 -1 21 -3 39 -4 42 -1 3 -2 9 -1 14 1 4 -4 15 -11 24 -12 13
-10 14 10 3 26 -14 29 -4 5 16 -16 12 -16 13 -1 11 9 -2 16 2 15 7 -1 6 -5 9
-8 8 -13 -4 -5 26 8 31 9 4 12 1 7 -7 -5 -9 -4 -9 6 0 14 13 22 56 9 47 -11
-6 -5 22 8 37 5 8 9 24 8 36 -1 13 0 21 3 19 2 -3 10 1 17 7 9 9 10 17 2 32
-10 20 -10 20 14 0 13 -11 18 -13 12 -5 -10 11 -9 17 4 32 9 10 13 18 8 18 -4
0 -2 7 5 15 7 9 10 18 6 22 -3 3 -6 1 -6 -5 0 -7 -5 -12 -10 -12 -6 0 -5 8 2
19 11 18 13 18 26 3 7 -9 11 -11 7 -4 -3 6 -2 12 2 12 5 0 18 7 29 16 10 8 13
13 7 9 -7 -3 -13 -1 -13 4 0 6 6 11 14 11 8 0 17 7 20 16 3 9 12 14 19 11 8
-3 14 3 14 15 2 17 -1 18 -15 7 -14 -10 -13 -9 1 7 18 19 18 19 33 -1 15 -19
15 -19 9 7 -10 40 1 64 20 48 13 -11 14 -10 9 5 -6 14 -4 16 7 10 11 -7 12 -6
2 6 -10 13 -10 16 2 17 8 1 21 3 28 4 8 1 14 7 14 14 0 7 -5 10 -11 6 -17 -10
-37 -11 -30 -1 3 5 9 7 14 4 5 -3 11 -1 15 5 3 6 18 8 33 6 26 -5 26 -4 8 9
-20 15 -13 20 27 16 9 -1 17 4 17 11 1 9 4 8 10 -3 9 -16 60 -16 58 0 -1 12 2
21 8 21 3 0 3 -4 -1 -9z m33 -16 c-3 -3 -9 2 -12 12 -6 14 -5 15 5 6 7 -7 10
-15 7 -18z m32 21 c0 -3 -4 -8 -10 -11 -5 -3 -10 -1 -10 4 0 6 5 11 10 11 6 0
10 -2 10 -4z m469 -20 c17 -3 23 -33 9 -43 -7 -3 -8 -1 -4 5 4 7 -7 20 -26 33
-18 12 -24 18 -13 14 11 -4 26 -8 34 -9z m-932 -28 c-10 -5 -14 -16 -11 -26 5
-14 4 -14 -4 -3 -12 16 6 53 21 44 5 -3 2 -10 -6 -15z m1030 -174 c-3 -3 -12
-4 -19 -1 -8 3 -5 6 6 6 11 1 17 -2 13 -5z m-158 -21 c-6 -7 -17 -13 -23 -12
-7 0 -6 2 2 6 6 2 10 8 8 12 -3 4 1 8 9 8 11 0 12 -4 4 -14z m-809 -13 c0 -5
-5 -10 -11 -10 -5 0 -7 5 -4 10 3 6 8 10 11 10 2 0 4 -4 4 -10z m-59 -83 c-13
-13 -26 -3 -16 12 3 6 11 8 17 5 6 -4 6 -10 -1 -17z m1099 8 c11 -13 10 -14
-4 -9 -9 3 -16 10 -16 15 0 13 6 11 20 -6z m15 -65 c3 -5 1 -10 -4 -10 -6 0
-11 5 -11 10 0 6 2 10 4 10 3 0 8 -4 11 -10z m-1184 -127 c12 -16 12 -17 -2
-6 -9 7 -20 9 -24 5 -5 -4 -5 -1 -1 6 9 16 11 15 27 -5z m-223 -158 c-3 -3 -9
2 -12 12 -6 14 -5 15 5 6 7 -7 10 -15 7 -18z m188 0 c-1 -8 -5 -17 -8 -21 -5
-4 -4 16 1 34 3 9 9 -1 7 -13z m1164 -10 c0 -2 -6 -5 -13 -8 -8 -3 -14 1 -14
8 0 7 6 11 14 8 7 -3 13 -6 13 -8z m277 -10 c-15 -16 -22 -11 -13 10 3 9 10
13 16 10 6 -4 5 -11 -3 -20z m-1701 -20 c-14 -14 -26 -23 -26 -19 0 11 43 55
48 50 2 -3 -8 -17 -22 -31z m1439 -53 c-2 -3 0 -13 6 -24 9 -17 8 -19 -7 -10
-21 12 -27 39 -8 39 8 0 12 -2 9 -5z m261 -44 c4 4 2 -1 -5 -10 -8 -11 -9 -18
-3 -18 6 0 13 4 16 8 4 7 40 8 56 2 3 -1 8 -2 13 -1 4 0 6 -5 5 -11 -2 -7 3
-12 10 -10 8 1 11 -2 7 -8 -4 -7 3 -9 19 -6 31 5 32 3 9 -15 -14 -12 -16 -12
-8 0 5 10 4 12 -3 7 -20 -12 -13 -28 8 -21 15 5 18 3 14 -9 -5 -12 -2 -15 10
-10 19 7 23 -21 4 -30 -7 -3 -1 -3 15 -1 15 2 25 0 22 -6 -4 -5 -2 -9 4 -9 6
0 8 -6 5 -14 -3 -8 0 -17 5 -21 6 -3 8 -11 5 -17 -5 -7 -2 -8 7 -2 20 12 40
14 33 2 -3 -5 2 -8 11 -6 10 2 20 -4 22 -12 4 -13 3 -13 -6 0 -7 9 -11 10 -11
3 0 -20 18 -24 29 -6 14 24 14 7 0 -19 -7 -13 -7 -18 -1 -14 6 3 14 -3 17 -15
4 -11 9 -18 12 -16 2 3 0 14 -6 26 -8 14 -8 22 1 27 6 4 8 3 5 -3 -4 -6 4 -23
18 -39 16 -18 21 -32 15 -38 -13 -13 -13 -29 0 -21 6 3 10 1 10 -5 0 -6 6 -8
13 -5 6 4 1 -3 -13 -15 -21 -19 -22 -21 -5 -18 14 2 20 -3 21 -19 1 -13 -3
-20 -9 -16 -7 4 -8 0 -3 -12 5 -15 4 -16 -9 -5 -8 7 -15 10 -15 6 0 -15 -2
-22 -11 -33 -7 -7 -6 -14 2 -19 8 -5 9 -3 4 6 -5 9 -4 11 4 6 16 -10 3 -29
-16 -22 -9 4 -11 2 -7 -6 5 -8 2 -9 -9 -5 -9 3 -19 1 -23 -5 -4 -7 -3 -8 4 -4
7 4 12 2 12 -4 0 -6 5 -8 10 -5 6 3 10 2 10 -3 0 -17 -41 -22 -47 -5 -5 14 -7
13 -15 0 -5 -10 -16 -14 -26 -10 -14 5 -13 2 3 -11 14 -12 16 -19 7 -22 -6 -3
-10 -10 -7 -14 3 -5 1 -11 -4 -15 -6 -3 -8 6 -5 22 3 24 3 25 -7 10 -6 -11
-12 -26 -14 -35 -2 -10 -4 -18 -5 -19 -2 -2 -3 -7 -4 -12 0 -5 -5 -13 -10 -18
-5 -5 -6 -3 -2 5 4 6 2 12 -4 12 -6 0 -8 5 -4 12 4 7 3 8 -4 4 -6 -4 -8 -14
-5 -23 5 -12 3 -14 -8 -8 -8 5 -6 0 4 -12 12 -14 15 -23 7 -28 -6 -4 -9 -1 -8
7 2 8 -4 12 -16 10 -12 -2 -16 1 -10 10 4 7 3 9 -1 5 -12 -10 -16 -39 -5 -32
5 3 11 1 15 -4 3 -6 -4 -8 -16 -6 -15 3 -19 0 -15 -11 3 -9 2 -12 -5 -9 -5 4
-7 16 -4 26 7 20 6 20 -14 2 -23 -19 -28 -28 -10 -17 8 4 8 0 0 -15 -7 -11
-14 -21 -17 -21 -3 0 -2 5 1 10 3 6 -1 13 -9 16 -9 3 -14 10 -11 14 2 4 -5 7
-18 6 -13 -1 -23 6 -25 17 -2 9 2 17 8 17 6 0 9 -4 6 -9 -4 -5 4 -6 16 -3 19
5 20 7 5 10 -9 2 -15 7 -12 12 3 5 13 6 22 3 12 -5 14 -3 8 7 -6 10 -4 12 9 7
9 -4 15 -3 11 2 -3 6 2 14 11 19 11 6 13 11 5 16 -6 4 -11 2 -11 -3 0 -6 -8
-11 -17 -11 -15 0 -15 2 2 14 11 8 24 12 31 9 7 -2 10 5 9 21 -2 15 1 24 6 20
5 -3 7 -10 4 -15 -4 -5 -1 -9 4 -9 10 0 16 21 12 43 -1 4 8 3 20 -3 11 -7 23
-9 27 -6 3 3 0 6 -7 6 -12 0 -11 36 3 58 4 7 2 20 -6 29 -7 10 -8 14 -1 10 6
-4 13 -4 16 0 2 5 2 3 1 -4 -2 -6 4 -14 11 -17 11 -4 12 0 5 18 -5 13 -6 27
-3 30 3 3 0 13 -8 22 -15 18 -22 74 -9 74 5 0 7 -15 5 -32 -2 -18 -1 -27 2
-20 2 6 9 9 15 6 6 -4 6 1 -1 13 -6 11 -7 23 -4 27 4 4 -3 13 -15 22 -12 8
-22 20 -22 26 0 7 6 3 14 -8 12 -16 17 -17 28 -6 11 11 10 12 -4 7 -18 -7 -22
0 -19 35 0 10 -1 11 -5 3 -10 -23 -26 -14 -19 10 7 21 6 21 -7 3 -13 -17 -14
-16 -12 12 1 25 -1 29 -17 25 -10 -3 -19 -10 -19 -16 0 -5 -10 2 -21 17 -12
15 -27 25 -34 22 -8 -3 -11 4 -9 20 1 13 -2 22 -7 18 -5 -3 -7 -9 -4 -14 3 -4
-1 -10 -9 -13 -9 -4 -12 2 -10 19 2 21 0 23 -19 12 -19 -10 -20 -9 -9 4 11 13
10 16 -5 14 -14 -1 -18 6 -16 27 1 19 -2 25 -10 20 -17 -10 -47 -11 -41 -1 4
5 12 7 20 4 8 -3 14 1 14 10 0 8 -5 12 -11 9 -6 -4 -5 2 2 13 7 12 17 18 22
15 5 -3 4 -9 -3 -13 -8 -5 -7 -9 5 -13 9 -4 13 -3 10 3 -3 6 -1 10 6 10 8 0 7
5 -2 18 -12 15 -12 16 2 5 9 -7 20 -9 25 -5z m-76 -7 c0 -6 -4 -12 -8 -15 -5
-3 -9 1 -9 9 0 8 4 15 9 15 4 0 8 -4 8 -9z m348 0 c2 -1 0 -6 -3 -11 -5 -8
-11 -8 -19 -1 -7 6 -17 7 -21 3 -5 -4 -5 -2 -2 5 6 9 18 10 45 4z m-1953 -21
c-3 -5 -1 -11 5 -15 5 -3 10 -2 10 4 0 6 8 7 17 4 15 -6 14 -7 -3 -13 -26 -10
-43 -2 -41 20 1 10 5 16 9 14 5 -3 6 -9 3 -14z m-29 -17 c-3 -8 -2 -12 2 -9 4
2 14 1 22 -4 12 -8 13 -13 3 -29 -9 -15 -10 -22 -1 -27 7 -5 8 -3 3 6 -6 9 -4
11 5 5 8 -5 11 -4 7 2 -4 6 0 18 7 28 10 14 15 15 21 5 6 -9 4 -11 -5 -5 -10
6 -12 4 -7 -7 3 -9 -2 -23 -13 -33 -11 -10 -19 -20 -18 -24 2 -18 -4 -21 -22
-11 -17 9 -19 8 -13 -7 6 -15 4 -16 -9 -5 -13 11 -16 10 -14 -5 1 -19 -24 -25
-37 -8 -5 6 -7 0 -4 -13 4 -15 1 -22 -6 -19 -7 2 -11 13 -10 23 1 10 -4 4 -13
-14 -8 -18 -19 -30 -24 -27 -5 3 -12 0 -16 -6 -4 -8 -3 -9 4 -5 7 4 12 4 13
-1 0 -4 2 -17 3 -29 1 -11 -3 -21 -10 -21 -10 0 -10 6 -3 21 8 16 6 15 -10 -4
-11 -14 -18 -27 -15 -29 2 -2 -1 -10 -7 -18 -6 -7 -8 -13 -3 -13 5 0 2 -5 -6
-10 -12 -8 -12 -10 -1 -10 11 0 9 -5 -5 -22 -15 -19 -16 -20 -1 -9 10 8 17 9
17 3 0 -6 -4 -13 -9 -16 -5 -4 1 -27 14 -54 16 -33 20 -52 14 -64 -7 -14 -6
-16 6 -12 8 3 12 11 9 18 -3 6 5 -2 20 -19 14 -16 25 -34 25 -40 1 -5 -4 -3
-9 5 -5 8 -10 10 -10 4 0 -19 12 -24 34 -12 18 10 19 9 9 -3 -9 -11 -7 -17 13
-26 22 -10 24 -10 14 3 -8 8 -8 14 -2 14 13 0 24 -29 15 -43 -4 -7 2 -5 12 3
10 8 16 10 12 3 -4 -6 -1 -13 5 -16 10 -3 10 -7 -1 -20 -7 -10 -10 -17 -6 -17
4 0 13 7 19 15 8 11 15 12 26 4 12 -9 12 -10 -4 -5 -16 6 -15 2 7 -26 27 -35
52 -38 74 -10 11 14 11 13 2 -10 -7 -15 -16 -25 -21 -22 -5 3 -8 2 -7 -3 4
-21 -3 -22 -23 -3 -25 23 -40 26 -37 8 4 -35 -1 -42 -17 -20 -8 12 -12 27 -9
32 3 6 1 10 -4 10 -6 0 -11 -7 -11 -16 0 -8 -5 -12 -11 -9 -6 4 -8 14 -4 22 4
12 2 13 -8 5 -18 -15 -75 -12 -89 6 -15 17 -20 44 -7 37 5 -4 6 1 3 9 -9 23
-35 21 -27 -1 3 -10 -10 2 -29 26 -24 29 -34 51 -31 65 4 17 3 18 -6 6 -9 -13
-11 -13 -11 1 0 9 -7 20 -16 23 -13 5 -14 9 -5 20 14 16 -3 17 -28 2 -9 -6
-12 -5 -7 2 3 6 -1 18 -10 26 -8 9 -10 16 -4 16 6 0 13 -7 16 -15 4 -8 11 -12
16 -9 5 4 -2 14 -16 23 -14 10 -23 21 -19 24 3 4 1 7 -5 7 -7 0 -12 -5 -12
-11 0 -5 -5 -7 -11 -4 -6 5 -5 11 5 18 12 9 13 16 5 27 -9 12 -10 11 -4 -5 3
-11 3 -16 -1 -12 -4 4 -14 1 -23 -6 -14 -11 -14 -10 -2 6 12 16 13 22 2 40
-11 18 -11 20 0 10 20 -19 31 -16 20 6 -8 15 -7 18 7 17 9 0 18 4 19 9 1 6 -5
9 -14 7 -9 -2 -12 1 -8 8 4 7 15 10 25 7 13 -3 17 0 13 9 -3 8 -10 11 -16 7
-6 -3 -7 -1 -3 6 6 9 11 9 21 1 11 -9 13 -6 11 14 -2 14 0 25 3 24 3 0 15 0
26 1 17 1 18 3 5 11 -12 8 -10 10 10 10 14 0 21 4 15 8 -5 4 -11 14 -13 22 -3
12 0 11 15 -2 18 -16 19 -16 20 3 1 12 -3 17 -9 13 -7 -4 -8 -2 -4 5 6 9 11 9
22 0 11 -9 14 -7 14 12 0 19 2 21 10 9 8 -13 11 -13 22 -1 10 10 10 12 1 7 -7
-4 -13 -2 -13 3 0 6 6 11 14 11 8 0 12 9 10 26 -2 22 0 23 13 12 15 -12 15
-11 4 10 -9 18 -9 22 1 20 7 -2 17 -7 21 -13 5 -6 6 0 4 14 -5 21 -3 23 28 19
29 -3 32 -1 24 13 -7 14 -5 16 12 12 12 -4 18 -11 15 -20z m-246 7 c0 -5 -5
-10 -11 -10 -5 0 -7 5 -4 10 3 6 8 10 11 10 2 0 4 -4 4 -10z m437 -107 c0 -7
-4 -13 -8 -13 -4 0 -9 6 -12 13 -3 8 0 14 7 14 7 0 13 -6 13 -14z m8 -41 c6
-17 -11 -39 -22 -28 -4 4 -1 11 7 16 13 9 13 10 0 11 -8 1 -19 1 -23 0 -5 -1
-6 2 -3 7 8 14 35 10 41 -6z m1735 8 c0 -5 -2 -10 -4 -10 -3 0 -8 5 -11 10 -3
6 -1 10 4 10 6 0 11 -4 11 -10z m-90 -24 c0 -2 -8 -10 -17 -17 -16 -13 -17
-12 -4 4 13 16 21 21 21 13z m-1650 -30 c0 -3 -4 -8 -10 -11 -5 -3 -10 -1 -10
4 0 6 5 11 10 11 6 0 10 -2 10 -4z m1463 -24 c-5 -14 -3 -15 8 -4 7 6 18 12
24 12 5 0 3 -5 -5 -10 -13 -8 -12 -10 3 -10 9 0 17 6 17 13 0 8 4 7 10 -3 5
-8 10 -11 10 -7 0 5 6 5 13 0 6 -4 15 -8 20 -9 4 -1 10 -2 13 -3 4 0 1 -8 -6
-16 -11 -13 -10 -14 5 -9 14 6 16 4 10 -7 -6 -11 -5 -12 6 -1 19 18 33 15 15
-4 -17 -16 -13 -35 7 -33 9 0 8 2 -1 6 -6 2 -10 9 -7 14 4 5 12 3 20 -4 11
-10 9 -14 -9 -25 -13 -8 -14 -11 -4 -8 10 3 20 1 23 -4 6 -9 -8 -14 -28 -11
-5 1 -5 -3 -2 -9 4 -6 -1 -20 -11 -31 -15 -16 -16 -22 -5 -28 17 -11 5 -32
-14 -25 -8 4 -13 10 -10 14 6 10 -22 7 -32 -4 -4 -4 -2 -6 6 -4 7 2 16 -3 19
-11 3 -10 0 -12 -11 -8 -9 3 -19 2 -22 -4 -4 -5 -10 -7 -15 -4 -4 3 -11 -2
-14 -10 -4 -13 -2 -13 14 -5 10 5 22 10 27 10 4 -1 -3 -7 -16 -14 -25 -14 -55
-11 -46 4 3 5 1 11 -4 14 -10 7 -9 -13 2 -31 4 -6 2 -15 -4 -19 -8 -4 -9 -3
-5 4 4 7 2 12 -3 12 -6 0 -11 -6 -11 -12 0 -10 -3 -9 -9 1 -5 7 -13 11 -19 7
-7 -4 -9 3 -6 21 l5 27 -23 -19 c-20 -17 -21 -18 -8 -2 12 16 12 22 0 40 -12
20 -12 21 3 8 19 -15 22 -8 8 18 -7 13 -6 18 4 18 8 0 11 -7 7 -16 -5 -14 -4
-14 10 -1 10 9 12 17 6 21 -7 4 -6 9 0 13 6 4 8 14 5 23 -4 11 -3 14 5 9 8 -5
10 -2 6 8 -3 9 -10 16 -16 16 -5 0 -7 -4 -4 -9 7 -11 -20 -8 -31 3 -4 4 -2 6
6 4 17 -4 34 49 19 58 -6 4 -8 3 -5 -2 3 -6 1 -16 -4 -24 -7 -12 -8 -11 -6 5
1 11 6 25 10 31 9 15 -1 24 -21 17 -14 -4 -15 -3 -2 5 10 8 18 8 27 0 16 -13
46 8 36 25 -3 6 -1 7 5 3 6 -4 8 -14 5 -24z m-1589 -28 c3 -8 2 -12 -4 -9 -6
3 -10 10 -10 16 0 14 7 11 14 -7z m-7 -22 c29 -26 30 -29 14 -39 -14 -9 -18
-8 -18 3 0 7 5 10 10 7 6 -3 7 -1 3 6 -4 6 -11 9 -16 6 -5 -3 -11 4 -15 15 -3
11 -11 20 -16 20 -6 0 -7 -5 -3 -12 4 -7 3 -8 -5 -4 -11 7 -6 26 7 26 4 0 21
-13 39 -28z m137 19 c4 -5 -3 -7 -14 -4 -23 6 -26 13 -6 13 8 0 17 -4 20 -9z
m-334 -21 c-7 -4 -10 -13 -6 -19 5 -7 1 -9 -9 -5 -11 5 -13 10 -5 19 5 6 7 15
3 19 -4 4 1 4 11 0 13 -5 14 -9 6 -14z m159 -6 c4 3 12 -4 19 -15 7 -11 8 -19
2 -19 -5 0 -10 -4 -10 -9 0 -4 8 -8 18 -8 9 0 22 -1 28 -2 15 -2 13 -28 -2
-28 -7 0 -10 7 -6 15 3 10 1 13 -7 8 -7 -5 -9 -16 -5 -28 5 -16 3 -19 -7 -12
-12 6 -12 5 -1 -8 9 -11 9 -18 2 -21 -6 -3 -5 -4 2 -3 7 2 13 9 13 16 0 7 7
15 15 17 13 4 13 3 0 -6 -11 -8 -11 -11 -2 -11 8 0 6 -8 -7 -22 -17 -17 -23
-19 -36 -8 -8 7 -15 9 -16 4 0 -5 -5 0 -10 11 -7 17 -8 17 -6 2 1 -10 6 -17
11 -17 11 2 26 -22 20 -32 -3 -4 -11 -8 -17 -8 -8 0 -7 3 2 9 11 7 9 10 -8 16
-18 5 -25 15 -23 35 0 3 -8 7 -19 7 -10 1 -19 -4 -19 -10 0 -7 -4 -6 -10 3 -5
8 -10 30 -10 49 0 20 -7 40 -17 48 -16 13 -16 13 5 3 17 -9 27 -8 37 0 8 7 18
9 23 6 5 -3 9 1 9 9 0 8 -4 12 -8 9 -4 -2 -11 1 -15 7 -4 8 -3 9 4 5 7 -4 12
-2 12 4 0 7 7 5 16 -4 8 -9 19 -14 23 -12z m-65 -15 c-3 -5 -10 -7 -15 -3 -5
3 -7 10 -3 15 3 5 10 7 15 3 5 -3 7 -10 3 -15z m251 10 c11 -17 2 -18 -19 -3
-17 12 -17 14 -4 14 9 0 20 -5 23 -11z m1280 1 c-3 -5 2 -11 12 -11 17 -1 17
-2 0 -6 -10 -3 -14 -10 -11 -16 4 -7 3 -9 -1 -4 -13 12 -16 47 -4 47 5 0 7 -4
4 -10z m-1640 -40 c-3 -5 3 -11 12 -14 15 -4 15 -5 -1 -3 -11 1 -20 10 -22 20
-1 9 2 15 7 11 5 -3 7 -9 4 -14z m60 -12 c-9 -6 -19 -7 -22 -4 -4 3 -1 6 6 6
7 0 9 4 6 10 -4 6 1 7 11 3 15 -6 15 -7 -1 -15z m1605 -2 c0 -3 -4 -8 -10 -11
-5 -3 -10 -1 -10 4 0 6 5 11 10 11 6 0 10 -2 10 -4z m101 -29 c-13 -13 -26 -3
-16 12 3 6 11 8 17 5 6 -4 6 -10 -1 -17z m-1745 -8 c14 -15 15 -20 4 -17 -9 2
-14 -4 -13 -16 1 -13 -2 -15 -10 -7 -7 7 -6 15 4 27 12 16 12 17 -3 11 -18 -6
-33 5 -21 17 11 10 19 7 39 -15z m1961 14 c-4 -3 1 -12 11 -20 9 -8 11 -12 5
-8 -7 3 -19 3 -25 -2 -28 -17 -37 -11 -20 13 9 13 21 24 26 24 5 0 6 -3 3 -7z
m-337 -23 c0 -5 -7 -7 -15 -4 -8 4 -15 8 -15 10 0 2 7 4 15 4 8 0 15 -4 15
-10z m-1515 -29 c3 -5 2 -12 -3 -15 -5 -3 -9 1 -9 9 0 17 3 19 12 6z m2100
-11 c3 -6 -1 -7 -9 -4 -18 7 -21 14 -7 14 6 0 13 -4 16 -10z m-100 -80 c-3 -5
-1 -10 6 -10 7 0 10 -3 6 -6 -9 -9 -28 6 -22 17 4 5 8 9 11 9 3 0 2 -4 -1 -10z
m-2365 -56 c0 -8 -5 -12 -10 -9 -6 4 -8 11 -5 16 9 14 15 11 15 -7z m2120
-109 c5 3 12 0 17 -7 13 -21 12 -35 -3 -35 -17 0 -18 13 -1 21 6 3 3 4 -9 1
-15 -4 -24 2 -34 22 -23 45 -23 50 0 20 12 -15 26 -25 30 -22z m-1665 25 c-3
-5 1 -10 10 -10 9 0 13 -5 10 -10 -5 -8 -11 -7 -21 1 -17 14 -18 29 -3 29 5 0
7 -4 4 -10z m591 -12 c15 -19 16 -20 2 -9 -10 7 -18 10 -18 7 0 -4 -5 -4 -10
-1 -6 4 -8 11 -5 16 8 12 9 12 31 -13z m457 -4 c-4 -12 -8 -13 -14 -3 -9 15
-2 32 11 24 5 -3 6 -13 3 -21z m562 5 c-4 -5 -2 -9 4 -9 6 0 17 -13 26 -30 12
-23 12 -28 2 -24 -14 5 -70 -20 -62 -27 2 -3 -4 -5 -15 -6 -23 -2 -46 22 -30
32 5 3 10 -1 10 -9 0 -9 5 -16 10 -16 6 0 9 6 8 13 -2 7 6 11 22 10 l25 -3
-24 10 c-20 9 -22 12 -10 27 12 14 12 16 0 8 -10 -5 -12 -4 -7 3 4 7 2 12 -4
12 -7 0 -10 -7 -6 -15 3 -8 1 -15 -4 -15 -13 0 -13 27 0 35 16 10 50 -17 39
-31 -6 -8 -5 -13 5 -17 9 -4 18 -1 22 5 5 7 2 8 -6 3 -10 -6 -12 -4 -7 8 3 8
-1 21 -8 27 -16 13 -10 34 6 24 5 -3 7 -10 4 -15z m-1073 -11 c-7 -7 -12 -8
-12 -2 0 14 12 26 19 19 2 -3 -1 -11 -7 -17z m301 7 c4 -8 3 -16 -1 -19 -4 -3
-9 4 -9 15 -2 23 3 25 10 4z m1157 1 c0 -3 -4 -8 -10 -11 -5 -3 -10 -1 -10 4
0 6 5 11 10 11 6 0 10 -2 10 -4z m-1920 -26 c-13 -8 -12 -10 3 -10 9 0 17 5
17 12 0 6 2 9 5 6 13 -12 -8 -35 -29 -33 -19 2 -22 -1 -21 -26 1 -15 -2 -26
-7 -23 -5 4 -7 12 -4 20 3 8 0 11 -9 7 -8 -3 -12 -10 -8 -17 3 -6 -3 -3 -14 7
-11 9 -22 15 -24 13 -2 -2 -4 6 -4 19 0 24 0 24 21 4 20 -19 21 -19 44 6 13
14 28 25 34 25 6 0 4 -5 -4 -10z m1452 -3 c1 5 11 1 21 -10 11 -11 13 -17 5
-16 -19 3 -51 -13 -40 -20 18 -11 18 -33 -1 -36 -9 -2 -15 1 -11 6 3 5 10 6
16 3 7 -4 8 -2 4 4 -4 6 -14 8 -23 5 -10 -4 -14 -2 -9 5 3 6 2 13 -3 16 -5 3
-7 -8 -6 -24 1 -17 -2 -27 -7 -24 -5 4 -7 16 -4 28 5 20 4 20 -9 2 -8 -10 -12
-23 -9 -27 2 -4 -5 -6 -17 -4 -13 3 -29 -1 -38 -8 -12 -9 -13 -9 -7 1 7 12 2
14 -34 14 -36 0 -41 -2 -35 -12 4 -6 11 -7 17 -4 7 4 8 2 4 -5 -4 -6 -12 -9
-17 -5 -6 3 -17 -2 -25 -12 -12 -16 -12 -13 1 13 8 18 15 35 14 39 0 3 3 9 7
12 4 4 4 1 0 -5 -8 -15 -5 -16 18 -7 9 3 13 11 9 18 -4 6 1 4 11 -4 16 -13 20
-12 41 12 19 22 23 23 32 10 6 -11 15 -13 29 -7 10 4 24 7 31 6 7 -1 10 9 9
24 -3 19 0 23 9 15 7 -6 15 -7 17 -3z m-1384 -7 c-2 -5 2 -10 7 -10 6 -1 20
-7 32 -15 12 -8 23 -11 26 -7 2 4 2 1 0 -7 -2 -8 2 -11 12 -7 14 5 13 1 -2
-24 -15 -27 -37 -42 -30 -22 2 7 -6 12 -24 12 -5 0 -7 -6 -3 -12 4 -7 3 -9 -1
-5 -15 13 -15 39 0 33 7 -2 19 3 27 12 12 16 11 16 -6 2 -11 -8 -17 -10 -13
-4 4 7 0 11 -11 10 -9 0 -16 4 -15 11 2 6 -6 11 -17 10 -10 -1 -17 -3 -15 -5
2 -3 0 -13 -6 -23 -7 -15 -6 -17 6 -13 8 3 12 11 9 16 -4 6 -1 9 6 6 17 -5 21
-31 8 -49 -8 -11 -9 -10 -4 4 3 11 0 17 -10 17 -8 0 -12 -4 -9 -10 10 -16 0
-12 -28 13 -19 16 -24 26 -17 37 5 8 12 11 17 7 4 -5 2 -12 -6 -16 -10 -6 -9
-10 4 -14 9 -4 13 -3 10 3 -3 5 5 21 19 35 27 26 38 31 34 15z m-418 -6 c0 -8
-19 -13 -24 -6 -3 5 1 9 9 9 8 0 15 -2 15 -3z m1732 -16 c-7 -7 -12 -8 -12 -2
0 14 12 26 19 19 2 -3 -1 -11 -7 -17z m-55 6 c-3 -3 -12 -4 -19 -1 -8 3 -5 6
6 6 11 1 17 -2 13 -5z m-1146 -27 c-10 -9 -11 -8 -5 6 3 10 9 15 12 12 3 -3 0
-11 -7 -18z m29 -17 c-8 -5 -19 -10 -25 -10 -5 0 -3 5 5 10 8 5 20 10 25 10 6
0 3 -5 -5 -10z m-27 -24 c7 4 8 3 4 -1 -7 -9 -37 -16 -37 -10 0 2 3 12 7 22 7
17 8 17 11 0 2 -10 8 -14 15 -11z m72 14 c-3 -5 -12 -10 -18 -10 -7 0 -6 4 3
10 19 12 23 12 15 0z m35 -11 c0 -5 -8 -9 -17 -8 -11 0 -13 3 -5 6 6 2 9 10 6
15 -4 7 -2 8 4 4 7 -4 12 -11 12 -17z m65 -3 c8 4 15 1 15 -6 0 -6 4 -8 10 -5
6 4 7 -1 3 -12 -6 -16 -5 -16 11 -4 17 14 16 16 -6 34 l-23 18 25 -12 c14 -7
29 -12 34 -11 5 2 4 -3 -2 -11 -9 -11 -7 -16 14 -25 33 -16 34 -15 34 9 0 11
-5 17 -10 14 -6 -4 -8 -11 -5 -16 4 -5 -2 -6 -11 -2 -11 4 -13 8 -6 11 7 2 10
7 8 11 -3 4 8 7 24 6 23 0 26 -2 17 -14 -10 -12 -9 -13 2 -6 18 10 141 13 135
3 -3 -5 0 -8 6 -8 6 0 8 -5 4 -12 -5 -7 -3 -8 5 -4 7 5 10 14 8 20 -4 9 5 12
29 11 19 -2 34 2 34 7 0 7 5 6 13 -1 8 -6 18 -7 23 -3 4 4 3 0 -4 -9 -6 -9 -9
-19 -5 -22 3 -4 1 -7 -6 -7 -8 0 -11 7 -7 15 3 8 1 15 -5 15 -6 0 -9 -8 -7
-17 2 -11 14 -18 32 -20 25 -2 26 0 11 11 -15 11 -15 13 8 23 33 15 54 2 32
-21 -9 -9 -12 -16 -7 -16 5 0 16 9 23 20 8 12 24 22 37 23 12 1 22 5 22 10 0
5 6 4 13 -2 8 -6 18 -7 23 -3 4 4 2 -1 -5 -10 -16 -21 -3 -23 22 -3 11 7 27
12 38 10 10 -2 21 0 24 6 4 5 11 9 17 9 6 0 -2 -10 -17 -21 -22 -18 -29 -20
-36 -8 -6 9 -9 10 -9 2 0 -22 20 -24 53 -5 32 19 57 20 91 6 15 -6 17 -4 11 6
-5 9 -4 11 3 6 7 -4 12 -1 12 6 0 8 3 9 8 3 10 -14 46 -19 37 -6 -3 6 -1 11 5
11 6 0 10 -7 8 -16 -2 -10 2 -19 9 -21 12 -4 11 26 -2 47 -3 6 -1 10 4 10 6 0
11 -7 11 -15 0 -18 16 -20 23 -2 4 9 6 9 6 -1 1 -7 -6 -15 -14 -18 -8 -4 -13
-10 -10 -14 3 -5 -5 -16 -17 -25 -20 -13 -21 -17 -8 -25 10 -7 11 -10 2 -10
-7 0 -15 7 -18 15 -4 8 -10 12 -16 9 -5 -3 -5 -11 2 -19 8 -9 8 -15 0 -20 -6
-4 -9 -1 -8 6 2 6 -3 14 -9 16 -7 3 -13 0 -13 -6 0 -6 -5 -11 -11 -11 -8 0 -8
4 0 14 7 9 8 17 3 20 -6 3 -13 -1 -16 -10 -3 -8 -10 -12 -16 -9 -5 3 -10 0
-10 -7 0 -10 -2 -10 -9 1 -6 9 -11 10 -15 2 -10 -16 -29 -13 -23 4 4 8 2 17
-4 20 -11 7 -2 25 12 25 6 0 8 -4 5 -8 -2 -4 -1 -14 3 -21 6 -9 11 -10 15 -2
4 6 2 11 -4 11 -6 0 -8 5 -5 11 5 6 12 4 22 -8 8 -10 12 -13 9 -7 -3 7 4 10
20 8 14 -1 23 0 20 4 -6 5 -21 8 -63 14 -7 1 -13 5 -13 10 0 5 -13 -1 -29 -14
-15 -13 -26 -26 -24 -30 2 -5 -5 -8 -17 -8 -12 0 -18 5 -15 10 3 6 1 10 -5 10
-7 0 -10 -7 -6 -15 3 -9 0 -15 -10 -15 -9 0 -12 -5 -8 -12 5 -7 3 -8 -5 -4 -7
5 -10 14 -8 20 4 9 -3 11 -20 8 -18 -3 -24 -1 -19 7 4 6 2 11 -4 11 -7 0 -10
-7 -7 -14 6 -14 -27 -33 -47 -28 -4 2 -15 -3 -24 -10 -10 -9 -13 -9 -9 -1 4 6
3 14 -3 18 -6 4 -8 11 -5 16 3 5 -1 6 -9 3 -9 -3 -16 -10 -16 -16 0 -5 5 -6
12 -2 7 5 8 3 3 -5 -5 -9 -10 -10 -18 -2 -14 14 -30 14 -21 0 5 -8 1 -8 -14 0
-17 9 -23 8 -31 -6 -6 -10 -10 -13 -11 -8 0 20 18 38 30 30 9 -6 11 -4 5 5 -6
9 -1 10 16 5 19 -5 21 -4 9 4 -22 15 -26 14 -66 -21 -35 -31 -36 -31 -20 -6
23 36 5 45 -34 17 -16 -13 -30 -26 -30 -29 0 -4 -7 -7 -15 -7 -8 0 -12 5 -8
10 3 5 -4 6 -18 3 l-24 -7 22 13 c16 10 20 17 13 28 -8 13 -10 13 -10 -1 0 -9
-9 -19 -20 -22 -17 -4 -19 -1 -14 18 3 12 1 26 -4 29 -6 4 -8 -2 -5 -14 3 -12
0 -20 -6 -20 -7 0 -10 -4 -7 -9 3 -5 -1 -11 -9 -15 -8 -3 -14 0 -12 7 1 7 -8
12 -21 12 -13 0 -27 7 -32 15 -8 12 -10 11 -11 -5 l0 -20 -9 20 c-5 11 -9 16
-9 11 -1 -5 -8 -3 -16 4 -11 9 -12 17 -4 31 5 10 7 19 5 19 -14 0 -27 -42 -17
-54 8 -9 7 -13 -4 -13 -8 0 -13 3 -10 5 3 3 0 11 -6 18 -8 10 -16 11 -29 4
-13 -7 -20 -6 -24 6 -9 23 -7 31 3 15 11 -17 42 -7 37 11 -1 7 -1 10 1 6 3 -5
12 -8 21 -8 12 0 13 3 4 12 -7 7 -12 17 -12 23 0 5 5 2 11 -7 5 -10 16 -15 24
-12z m1379 8 c3 -8 2 -12 -4 -9 -6 3 -10 10 -10 16 0 14 7 11 14 -7z m-1509
-13 c3 -5 0 -13 -6 -17 -7 -4 -9 -3 -5 4 3 5 0 13 -6 15 -9 4 -10 6 -1 6 6 1
14 -3 18 -8z m23 -26 c0 -14 -4 -25 -8 -25 -5 0 -7 8 -5 18 2 9 4 20 4 25 2
18 9 4 9 -18z m62 -34 c0 -6 -4 -12 -8 -15 -5 -3 -9 1 -9 9 0 8 4 15 9 15 4 0
8 -4 8 -9z m690 -11 c-6 -4 -11 -10 -11 -14 1 -3 -1 -6 -4 -6 -6 0 -5 9 2 27
3 7 10 10 15 7 6 -4 6 -9 -2 -14z m-375 -10 c-10 -11 -22 -20 -26 -20 -5 0 -1
9 8 20 10 11 22 20 27 20 5 0 1 -9 -9 -20z m270 -17 c5 -14 4 -15 -6 -6 -9 9
-16 10 -26 2 -9 -8 -13 -8 -13 -1 0 9 15 19 31 21 4 1 10 -7 14 -16z m-545
-93 c0 6 13 2 30 -10 25 -18 28 -25 19 -36 -8 -10 -8 -14 0 -14 11 0 15 13 12
37 -1 6 4 15 10 19 9 5 10 2 6 -9 -8 -20 28 -44 36 -24 4 8 6 6 6 -4 1 -9 7
-16 15 -16 12 0 12 4 -1 26 -12 21 -12 23 0 9 14 -18 33 -25 23 -10 -3 5 1 9
9 9 10 0 12 -4 5 -12 -8 -9 -6 -14 5 -19 11 -4 14 -2 9 6 -5 8 -2 9 12 3 10
-4 30 -8 44 -9 14 -1 32 -6 40 -11 11 -7 10 -1 -4 19 -11 17 -13 25 -5 20 20
-12 71 -12 88 0 11 8 13 8 7 -1 -4 -8 -2 -13 5 -13 8 0 7 -5 -2 -17 -13 -16
-12 -17 3 -5 9 8 14 21 12 30 -5 15 -4 15 6 -1 6 -9 8 -23 4 -30 -6 -9 -5 -9
8 0 8 7 19 9 24 5 4 -4 2 2 -6 12 -15 19 -14 19 18 2 17 -9 32 -14 32 -10 0 4
7 1 15 -6 8 -7 15 -10 15 -6 0 3 0 9 0 14 0 4 -9 8 -20 8 -30 2 -32 3 -24 15
4 8 9 8 17 0 7 -7 15 -7 22 -1 8 7 25 3 51 -9 28 -14 43 -16 52 -9 7 6 15 8
18 5 4 -3 15 3 26 13 12 11 29 17 45 14 13 -3 22 -1 19 4 -12 20 30 7 47 -15
10 -13 23 -20 29 -17 7 4 8 2 4 -5 -6 -9 -11 -9 -23 1 -14 11 -15 10 -9 -8 4
-12 0 -28 -10 -40 -8 -10 -12 -13 -8 -5 5 9 3 12 -5 7 -6 -4 -9 -18 -7 -31 5
-24 -6 -37 -32 -41 -8 -2 -11 3 -8 12 3 9 1 12 -5 9 -5 -4 -7 -15 -4 -26 9
-28 -2 -41 -25 -29 -18 10 -19 8 -9 -17 8 -23 8 -26 -2 -15 -18 17 -32 15 -25
-3 3 -9 0 -15 -10 -15 -8 0 -12 5 -8 11 8 13 -20 -1 -51 -25 -13 -11 -15 -15
-5 -14 8 2 19 9 25 15 7 9 14 10 25 2 13 -9 13 -10 -2 -6 -9 3 -19 0 -22 -8
-2 -7 -16 -12 -30 -11 -14 2 -23 -1 -20 -5 3 -5 -1 -10 -8 -11 -7 0 -17 -2
-23 -2 -5 -1 -16 -5 -24 -10 -10 -7 -12 -6 -6 4 6 10 4 12 -9 7 -9 -4 -14 -3
-11 2 3 5 0 13 -6 17 -8 4 -9 3 -5 -4 4 -7 2 -13 -3 -13 -6 -1 -17 -2 -23 -3
-7 -1 -21 2 -32 7 -12 6 -16 5 -12 -1 3 -5 -3 -12 -14 -15 -11 -3 -20 -2 -20
3 0 4 -7 11 -16 14 -13 5 -14 4 -6 -7 12 -14 6 -27 -12 -27 -6 0 -4 5 4 10 13
8 12 10 -2 10 -10 0 -18 -6 -18 -12 0 -7 -6 -3 -14 8 -13 18 -21 20 -64 14
-39 -5 -49 -3 -45 7 3 7 9 10 14 7 5 -3 17 0 26 6 16 9 15 10 -4 5 -16 -4 -23
-2 -23 7 0 10 -2 10 -9 -1 -7 -11 -13 -10 -33 3 -14 9 -28 13 -33 9 -4 -5 -5
-2 -1 5 4 6 2 12 -4 12 -6 0 -9 4 -6 9 3 5 -1 12 -10 15 -12 5 -15 2 -10 -11
4 -10 -4 -4 -18 12 -19 24 -22 33 -13 44 10 12 9 12 -10 3 -30 -16 -41 -15
-18 1 14 11 15 16 5 22 -9 5 -11 4 -6 -3 4 -7 2 -12 -3 -12 -15 0 -14 23 2 40
10 12 9 12 -5 1 -10 -7 -18 -10 -18 -5 0 5 -5 2 -10 -6 -7 -10 -10 -11 -11 -2
-1 6 -3 17 -4 22 -1 6 -3 15 -4 20 0 6 -9 10 -18 11 -12 0 -13 2 -5 6 7 3 20
-1 30 -9 15 -11 16 -11 7 2 -18 27 -12 55 14 58 13 2 21 0 18 -5 -4 -6 0 -10
8 -10 8 0 12 4 9 9 -3 4 0 8 5 8 6 0 11 -4 11 -10 0 -5 5 -10 11 -10 8 0 8 5
-1 15 -7 8 -18 15 -24 14 -27 -3 -44 2 -50 16 -5 13 -2 13 19 -1 17 -11 25
-12 25 -4z m-55 -19 c-3 -6 -11 -9 -16 -6 -5 4 -9 1 -9 -4 0 -6 -4 -11 -10
-11 -18 0 -10 17 13 27 25 12 32 10 22 -6z m301 -16 c14 -13 13 -15 -8 -11
-13 3 -24 5 -26 5 -5 1 9 21 14 21 3 0 12 -7 20 -15z m347 -6 c-8 -8 -13 -7
-18 2 -5 8 -4 10 3 5 7 -4 12 -2 12 5 0 7 3 9 7 6 4 -4 2 -12 -4 -18z m-653
-7 c0 -4 -10 -9 -22 -9 -18 -2 -20 0 -8 7 18 12 30 13 30 2z m-106 -174 c-9
-14 -23 2 -17 18 4 12 8 13 14 3 4 -7 5 -17 3 -21z m36 -48 c0 -5 -2 -10 -4
-10 -3 0 -8 5 -11 10 -3 6 -1 10 4 10 6 0 11 -4 11 -10z m494 -55 c-4 -8 -11
-12 -16 -9 -6 4 -5 10 3 15 19 12 19 11 13 -6z m47 -8 c-10 -9 -11 -8 -5 6 3
10 9 15 12 12 3 -3 0 -11 -7 -18z m-416 -37 c3 -5 2 -10 -4 -10 -5 0 -13 5
-16 10 -3 6 -2 10 4 10 5 0 13 -4 16 -10z m690 -40 c3 -6 -1 -7 -9 -4 -18 7
-21 14 -7 14 6 0 13 -4 16 -10z m-156 -113 c0 -9 -2 -8 -6 1 -2 6 -10 9 -15 6
-7 -4 -8 -2 -4 5 9 13 26 5 25 -12z"/>
<path d="M1294 2347 c-4 -7 -4 -9 1 -5 4 4 14 3 22 -3 8 -7 13 -8 13 -1 0 15
-28 23 -36 9z"/>
<path d="M1150 2341 c0 -6 4 -13 10 -16 6 -3 7 1 4 9 -7 18 -14 21 -14 7z"/>
<path d="M1000 2241 c0 -6 4 -13 10 -16 6 -3 7 1 4 9 -7 18 -14 21 -14 7z"/>
<path d="M805 1960 c-3 -5 -1 -10 4 -10 6 0 11 5 11 10 0 6 -2 10 -4 10 -3 0
-8 -4 -11 -10z"/>
<path d="M793 1934 c4 -4 0 -15 -8 -24 -14 -15 -14 -18 -1 -23 11 -4 13 -1 9
10 -5 12 -3 14 7 8 8 -5 11 -4 6 3 -3 5 -1 12 6 14 7 3 4 7 -7 12 -11 4 -16 4
-12 0z"/>
<path d="M650 1446 c0 -2 7 -7 16 -10 8 -3 12 -2 9 4 -6 10 -25 14 -25 6z"/>
<path d="M1925 1440 c3 -5 11 -10 16 -10 6 0 7 5 4 10 -3 6 -11 10 -16 10 -6
0 -7 -4 -4 -10z"/>
<path d="M1910 1376 c0 -2 7 -7 16 -10 8 -3 12 -2 9 4 -6 10 -25 14 -25 6z"/>
<path d="M1908 1198 c10 -13 10 -17 0 -21 -9 -4 -9 -6 -1 -6 20 -2 24 16 5 30
-15 13 -16 12 -4 -3z"/>
<path d="M656 1091 c-3 -5 1 -14 8 -20 11 -9 16 -9 22 0 4 7 3 9 -4 5 -6 -3
-13 -2 -16 3 -4 5 2 12 11 14 16 4 16 5 1 6 -9 0 -19 -3 -22 -8z"/>
<path d="M760 955 c18 -19 36 -33 39 -30 2 3 12 -2 22 -11 12 -11 19 -12 24
-4 4 6 4 14 1 17 -3 4 -6 0 -6 -8 0 -11 -2 -11 -9 -1 -4 7 -17 15 -27 16 -12
2 -18 10 -16 22 2 13 0 15 -6 7 -6 -9 -12 -7 -22 7 -8 11 -19 20 -24 20 -6 0
5 -16 24 -35z"/>
<path d="M1783 924 c10 -17 -24 -27 -35 -12 -7 10 -9 9 -5 -2 5 -19 50 -20 74
-2 14 12 15 13 2 9 -9 -3 -22 0 -29 6 -9 9 -11 9 -7 1z"/>
<path d="M909 903 c-13 -16 -12 -17 4 -4 9 7 17 15 17 17 0 8 -8 3 -21 -13z"/>
<path d="M1204 898 c-4 -7 -4 -10 1 -6 4 4 14 0 22 -10 13 -15 13 -15 3 6 -12
25 -16 27 -26 10z"/>
<path d="M1175 889 c-4 -6 -5 -12 -2 -15 2 -3 7 2 10 11 7 17 1 20 -8 4z"/>
<path d="M1250 885 c0 -8 4 -15 10 -15 5 0 7 7 4 15 -4 8 -8 15 -10 15 -2 0
-4 -7 -4 -15z"/>
<path d="M1383 885 c0 -7 6 -11 14 -8 7 3 13 6 13 8 0 2 -6 5 -13 8 -8 3 -14
-1 -14 -8z"/>
<path d="M2210 1531 c0 -5 5 -13 10 -16 6 -3 10 -2 10 4 0 5 -4 13 -10 16 -5
3 -10 2 -10 -4z"/>
<path d="M2136 1473 c-6 -14 -5 -15 5 -6 7 7 10 15 7 18 -3 3 -9 -2 -12 -12z"/>
<path d="M2242 1393 c12 -12 24 -20 27 -17 3 3 -2 10 -12 15 -9 6 -15 14 -13
18 3 4 -2 8 -10 8 -11 0 -9 -6 8 -24z"/>
<path d="M2500 1260 c0 -5 5 -10 11 -10 5 0 7 5 4 10 -3 6 -8 10 -11 10 -2 0
-4 -4 -4 -10z"/>
<path d="M2530 1171 c0 -7 -4 -9 -10 -6 -5 3 -10 1 -10 -4 0 -6 4 -11 9 -11
13 0 25 20 17 27 -3 4 -6 1 -6 -6z"/>
<path d="M2345 1080 c-3 -5 -1 -10 6 -10 8 0 8 -5 -2 -17 -11 -15 -11 -16 1
-6 16 15 22 43 10 43 -5 0 -12 -4 -15 -10z"/>
<path d="M2316 1007 c3 -10 9 -15 12 -12 3 3 0 11 -7 18 -10 9 -11 8 -5 -6z"/>
<path d="M2354 990 c0 -13 4 -16 10 -10 7 7 7 13 0 20 -6 6 -10 3 -10 -10z"/>
<path d="M330 1379 c0 -5 5 -7 10 -4 6 3 10 8 10 11 0 2 -4 4 -10 4 -5 0 -10
-5 -10 -11z"/>
<path d="M296 1362 c-3 -5 1 -9 9 -9 8 0 12 4 9 9 -3 4 -7 8 -9 8 -2 0 -6 -4
-9 -8z"/>
<path d="M230 1039 c0 -5 5 -7 10 -4 6 3 10 8 10 11 0 2 -4 4 -10 4 -5 0 -10
-5 -10 -11z"/>
<path d="M330 1020 c0 -5 5 -10 11 -10 5 0 7 5 4 10 -3 6 -8 10 -11 10 -2 0
-4 -4 -4 -10z"/>
<path d="M261 973 c27 -35 38 -43 43 -34 3 5 -1 12 -10 15 -14 5 -14 9 -3 24
13 15 12 16 -3 3 -12 -9 -18 -10 -18 -2 0 6 -5 11 -11 11 -8 0 -7 -6 2 -17z"/>
<path d="M310 966 c0 -2 7 -7 16 -10 8 -3 12 -2 9 4 -6 10 -25 14 -25 6z"/>
<path d="M340 875 c15 -18 26 -19 33 -2 3 8 -4 14 -20 15 -22 2 -24 0 -13 -13z"/>
<path d="M475 870 c3 -5 8 -10 11 -10 2 0 4 5 4 10 0 6 -5 10 -11 10 -5 0 -7
-4 -4 -10z"/>
<path d="M388 863 c7 -3 16 -2 19 1 4 3 -2 6 -13 5 -11 0 -14 -3 -6 -6z"/>
<path d="M2082 1281 c-11 -7 -11 -9 0 -14 9 -3 15 1 15 9 0 8 -1 14 -1 14 -1
0 -7 -4 -14 -9z"/>
<path d="M2186 1277 c3 -10 9 -15 12 -12 3 3 0 11 -7 18 -10 9 -11 8 -5 -6z"/>
<path d="M2075 1099 c-4 -6 -5 -12 -2 -15 2 -3 7 2 10 11 7 17 1 20 -8 4z"/>
<path d="M2070 1046 c0 -2 7 -6 15 -10 8 -3 15 -1 15 4 0 6 -7 10 -15 10 -8 0
-15 -2 -15 -4z"/>
<path d="M402 1150 c0 -14 2 -19 5 -12 2 6 2 18 0 25 -3 6 -5 1 -5 -13z"/>
<path d="M475 1160 c-3 -5 -1 -10 4 -10 6 0 11 5 11 10 0 6 -2 10 -4 10 -3 0
-8 -4 -11 -10z"/>
<path d="M2040 820 c-9 -6 -10 -10 -3 -10 6 0 15 5 18 10 8 12 4 12 -15 0z"/>
<path d="M1927 782 c-19 -21 -11 -38 10 -21 10 9 13 8 13 -2 0 -10 3 -10 12
-1 10 10 9 15 -3 27 -14 14 -17 14 -32 -3z m29 -4 c4 -7 4 -10 -1 -6 -4 4 -15
2 -24 -5 -14 -11 -14 -10 -2 6 16 20 18 21 27 5z"/>
<path d="M675 800 c-3 -5 -1 -10 4 -10 6 0 11 5 11 10 0 6 -2 10 -4 10 -3 0
-8 -4 -11 -10z"/>
<path d="M716 771 c-4 -5 -2 -12 3 -15 5 -4 12 -2 15 3 4 5 2 12 -3 15 -5 4
-12 2 -15 -3z"/>
<path d="M960 722 c0 -7 0 -15 0 -19 0 -5 9 -8 20 -8 12 0 25 -6 29 -14 6 -9
10 -10 16 -2 5 9 10 9 21 0 10 -8 18 -9 25 -2 9 9 0 13 -44 14 -9 0 -15 4 -12
9 3 5 1 11 -4 14 -5 4 -13 1 -17 -5 -5 -9 -11 -7 -21 6 -7 11 -13 13 -13 7z"/>
<path d="M1106 721 c-3 -5 3 -11 13 -14 14 -3 18 -1 14 9 -6 16 -19 18 -27 5z"/>
<path d="M1175 720 c-4 -6 -10 -8 -15 -5 -9 6 -6 -28 4 -44 4 -5 0 -12 -6 -14
-8 -4 -9 -6 -2 -6 6 -1 17 6 24 14 10 12 9 16 -4 21 -16 6 -16 8 0 25 9 11 14
19 11 19 -3 0 -9 -5 -12 -10z"/>
<path d="M1204 722 c4 -7 2 -12 -3 -12 -6 0 -11 -4 -11 -10 0 -15 17 -12 23 5
4 8 1 17 -5 21 -7 4 -8 3 -4 -4z"/>
<path d="M1265 721 c3 -2 0 -10 -6 -18 -9 -9 -8 -13 0 -13 6 0 11 5 11 11 0 5
4 8 9 5 5 -3 11 0 14 7 3 7 -3 13 -14 13 -10 0 -16 -2 -14 -5z"/>
<path d="M1375 720 c-3 -5 -1 -10 4 -10 6 0 11 5 11 10 0 6 -2 10 -4 10 -3 0
-8 -4 -11 -10z"/>
<path d="M1443 723 c-15 -5 -17 -23 -4 -23 5 0 11 7 15 15 3 8 4 15 3 14 -1 0
-8 -3 -14 -6z"/>
<path d="M1470 716 c0 -8 4 -17 8 -20 4 -2 8 4 8 15 0 10 -4 19 -8 19 -4 0 -8
-6 -8 -14z"/>
<path d="M1704 719 c-2 -4 0 -10 6 -14 6 -4 8 -11 5 -16 -7 -11 8 -12 19 -1 4
4 12 7 17 7 5 0 8 5 7 10 -1 6 -9 9 -16 7 -8 -2 -12 1 -8 6 3 5 -2 9 -10 9 -8
0 -17 -4 -20 -8z"/>
<path d="M1512 704 c-7 -8 -8 -14 -3 -14 10 0 25 19 20 25 -2 1 -10 -3 -17
-11z"/>
<path d="M1410 680 c0 -5 -7 -10 -15 -10 -8 0 -15 -4 -15 -9 0 -4 12 -7 26 -5
27 3 47 14 25 14 -7 0 -9 5 -6 10 3 6 1 10 -4 10 -6 0 -11 -4 -11 -10z"/>
<path d="M1664 528 c-4 -6 -2 -14 4 -16 7 -2 9 -9 5 -15 -4 -7 1 -6 10 2 13
10 15 17 6 27 -14 17 -16 17 -25 2z"/>
<path d="M1602 518 c-7 -7 -12 -16 -12 -21 0 -5 7 -1 16 8 9 9 14 18 12 20 -2
3 -10 -1 -16 -7z"/>
<path d="M1633 515 c0 -8 4 -12 9 -9 5 3 6 10 3 15 -9 13 -12 11 -12 -6z"/>
<path d="M1464 505 c8 -8 20 -15 27 -15 7 0 4 6 -7 15 -25 19 -40 19 -20 0z"/>
<path d="M1256 493 c-5 -11 -1 -11 17 -2 12 7 23 10 24 8 1 -2 4 -2 7 2 3 3
-6 5 -19 5 -13 0 -27 -6 -29 -13z"/>
<path d="M1030 496 c0 -2 8 -10 18 -17 15 -13 16 -12 3 4 -13 16 -21 21 -21
13z"/>
<path d="M1545 480 c-3 -6 1 -7 9 -4 18 7 21 14 7 14 -6 0 -13 -4 -16 -10z"/>
<path d="M1653 411 c0 -11 5 -18 9 -15 4 3 5 11 1 19 -7 21 -12 19 -10 -4z"/>
<path d="M970 366 c0 -2 6 -9 14 -15 11 -9 16 -9 22 0 4 8 3 9 -4 5 -7 -4 -12
-2 -12 3 0 6 -4 11 -10 11 -5 0 -10 -2 -10 -4z"/>
<path d="M1046 323 c-3 -4 3 -13 15 -21 11 -8 22 -12 23 -11 5 7 -32 37 -38
32z"/>
<path d="M1437 273 c-10 -9 -9 -23 1 -23 5 0 9 7 9 15 0 17 -1 18 -10 8z"/>
<path d="M1217 263 c-4 -3 -7 -11 -7 -17 0 -6 5 -5 12 2 6 6 9 14 7 17 -3 3
-9 2 -12 -2z"/>
<path d="M1590 2487 c0 -16 21 -47 29 -42 5 2 14 -2 21 -10 7 -8 18 -15 24
-15 6 0 3 5 -7 11 -9 6 -14 15 -11 21 4 6 3 8 -4 4 -5 -3 -13 0 -15 6 -4 9 -6
8 -7 -2 0 -10 -6 -6 -15 10 -8 14 -14 21 -15 17z"/>
<path d="M1816 2258 c3 -5 10 -6 15 -3 13 9 11 12 -6 12 -8 0 -12 -4 -9 -9z"/>
<path d="M766 2244 c-5 -14 -4 -15 9 -4 17 14 19 20 6 20 -5 0 -12 -7 -15 -16z"/>
<path d="M710 2156 c0 -2 7 -7 16 -10 8 -3 12 -2 9 4 -6 10 -25 14 -25 6z"/>
<path d="M676 2103 c-6 -14 -5 -15 5 -6 7 7 10 15 7 18 -3 3 -9 -2 -12 -12z"/>
<path d="M630 2040 c0 -5 5 -10 11 -10 5 0 7 5 4 10 -3 6 -8 10 -11 10 -2 0
-4 -4 -4 -10z"/>
<path d="M613 2025 c4 -5 0 -19 -8 -32 -9 -13 -12 -23 -7 -23 5 0 14 11 20 25
9 18 8 26 -1 31 -7 4 -9 3 -4 -1z"/>
<path d="M550 1846 c0 -2 7 -6 15 -10 8 -3 15 -1 15 4 0 6 -7 10 -15 10 -8 0
-15 -2 -15 -4z"/>
<path d="M2081 1734 c6 -7 16 -11 21 -8 11 7 3 17 -18 20 -12 2 -13 -1 -3 -12z"/>
<path d="M2206 1681 c-4 -5 -2 -12 3 -15 5 -4 12 -2 15 3 4 5 2 12 -3 15 -5 4
-12 2 -15 -3z"/>
<path d="M0 1349 c0 -5 5 -7 10 -4 5 3 10 8 10 11 0 2 -4 4 -10 4 -5 0 -10 -5
-10 -11z"/>
<path d="M11 996 c-9 -11 -9 -16 0 -22 8 -5 9 -3 4 6 -6 10 -4 12 8 7 11 -4
14 -2 10 9 -6 17 -8 17 -22 0z"/>
<path d="M87 899 c7 -7 15 -10 18 -7 3 3 -2 9 -12 12 -14 6 -15 5 -6 -5z"/>
<path d="M2455 818 l-20 -21 23 12 c12 6 22 16 22 21 0 13 -2 12 -25 -12z"/>
<path d="M2490 819 c0 -5 5 -7 10 -4 6 3 10 8 10 11 0 2 -4 4 -10 4 -5 0 -10
-5 -10 -11z"/>
<path d="M2390 770 c-9 -6 -10 -10 -3 -10 6 0 15 5 18 10 8 12 4 12 -15 0z"/>
<path d="M340 720 c0 -5 5 -10 11 -10 5 0 7 5 4 10 -3 6 -8 10 -11 10 -2 0 -4
-4 -4 -10z"/>
<path d="M2225 660 c-3 -6 1 -7 9 -4 18 7 21 14 7 14 -6 0 -13 -4 -16 -10z"/>
<path d="M490 641 c0 -6 5 -11 11 -11 5 0 7 -6 3 -12 -4 -7 -3 -10 1 -5 5 4
18 1 30 -7 18 -12 22 -12 22 -1 0 8 -4 12 -7 10 -4 -3 -19 5 -34 16 -14 11
-26 16 -26 10z"/>
<path d="M2060 594 c0 -13 -3 -14 -13 -5 -13 10 -27 6 -27 -9 0 -15 45 -2 48
13 2 9 1 17 -2 17 -3 0 -6 -7 -6 -16z"/>
<path d="M590 562 c0 -4 9 -8 19 -8 11 0 17 4 15 8 -3 4 -12 8 -20 8 -8 0 -14
-4 -14 -8z"/>
<path d="M1976 561 c8 -8 43 -8 38 0 -2 4 -13 7 -24 6 -10 -1 -17 -3 -14 -6z"/>
<path d="M1937 553 c-4 -3 -7 -11 -7 -17 0 -6 5 -5 12 2 6 6 9 14 7 17 -3 3
-9 2 -12 -2z"/>
<path d="M1903 533 c4 -3 0 -14 -8 -23 -14 -15 -14 -19 2 -31 16 -12 17 -12 5
2 -10 13 -10 18 1 28 8 6 18 7 23 3 4 -4 2 1 -5 11 -7 9 -16 17 -19 17 -3 0
-2 -3 1 -7z"/>
<path d="M867 209 c7 -7 15 -10 18 -7 3 3 -2 9 -12 12 -14 6 -15 5 -6 -5z"/>
<path d="M1035 21 c-3 -5 -2 -12 3 -15 5 -3 9 1 9 9 0 17 -3 19 -12 6z"/>
</g>
</svg>
